<?xml version="1.0" encoding="UTF-8"?>
<!DOCTYPE svg PUBLIC "-//W3C//DTD SVG 1.1//EN" "http://www.w3.org/Graphics/SVG/1.1/DTD/svg11.dtd">
<svg xmlns="http://www.w3.org/2000/svg" version="1.1" width="500px" height="500px" style="shape-rendering:geometricPrecision; text-rendering:geometricPrecision; image-rendering:optimizeQuality; fill-rule:evenodd; clip-rule:evenodd" xmlns:xlink="http://www.w3.org/1999/xlink">
<g><path style="opacity:1" fill="#525252" d="M 303.5,142.5 C 299.167,142.5 294.833,142.5 290.5,142.5C 294.815,139.939 299.148,139.939 303.5,142.5 Z"/></g>
<g><path style="opacity:1" fill="#353535" d="M 270.5,143.5 C 264.471,143.425 258.471,143.759 252.5,144.5C 255.695,142.97 259.195,142.304 263,142.5C 265.69,142.503 268.19,142.836 270.5,143.5 Z"/></g>
<g><path style="opacity:1" fill="#f4f4f4" d="M 285.5,142.5 C 287.167,142.5 288.833,142.5 290.5,142.5C 294.833,142.5 299.167,142.5 303.5,142.5C 304.791,142.263 305.791,142.596 306.5,143.5C 306.586,144.496 306.252,145.329 305.5,146C 301.948,146.878 298.614,148.044 295.5,149.5C 292.251,151.028 288.918,152.361 285.5,153.5C 283.011,153.241 281.344,154.241 280.5,156.5C 279.5,158.167 278.167,159.5 276.5,160.5C 275.094,160.973 274.427,161.973 274.5,163.5C 274.167,164.5 273.5,165.167 272.5,165.5C 271.5,165.833 270.833,166.5 270.5,167.5C 270.5,167.833 270.5,168.167 270.5,168.5C 267.966,170.75 267.966,173.084 270.5,175.5C 270.427,177.027 271.094,178.027 272.5,178.5C 272.427,180.027 273.094,181.027 274.5,181.5C 279.231,188.702 281.564,196.702 281.5,205.5C 281.41,208.152 282.076,210.485 283.5,212.5C 284.434,213.568 284.768,214.901 284.5,216.5C 284.893,228.003 285.56,239.336 286.5,250.5C 288.631,261.883 288.964,273.217 287.5,284.5C 286.097,287.909 285.43,291.575 285.5,295.5C 284.262,297.214 283.595,299.214 283.5,301.5C 282.921,305.361 280.921,308.027 277.5,309.5C 275.821,309.285 274.821,309.952 274.5,311.5C 274.107,313.284 273.441,314.95 272.5,316.5C 271.262,318.214 270.595,320.214 270.5,322.5C 269.262,324.214 268.595,326.214 268.5,328.5C 268.396,330.703 267.73,332.703 266.5,334.5C 265.069,335.78 264.402,337.447 264.5,339.5C 264.5,341.167 264.5,342.833 264.5,344.5C 268.163,344.952 271.83,345.452 275.5,346C 278.106,346.792 280.106,348.292 281.5,350.5C 281.5,351.5 281.5,352.5 281.5,353.5C 277.958,353.187 274.625,353.521 271.5,354.5C 264.442,354.919 257.442,354.919 250.5,354.5C 250.027,353.094 249.027,352.427 247.5,352.5C 246.89,351.609 246.557,350.609 246.5,349.5C 244.898,347.926 242.898,347.259 240.5,347.5C 237.707,346.254 235.04,346.587 232.5,348.5C 231.18,349.942 229.514,350.608 227.5,350.5C 226.29,350.932 225.29,351.599 224.5,352.5C 223.251,354.136 221.584,355.303 219.5,356C 214.319,356.362 209.152,356.862 204,357.5C 201.992,357.693 200.492,357.026 199.5,355.5C 200.11,354.609 200.443,353.609 200.5,352.5C 202.833,349.5 205.5,346.833 208.5,344.5C 211.112,342.948 212.445,340.614 212.5,337.5C 212.232,335.901 212.566,334.568 213.5,333.5C 214.652,328.015 214.818,322.349 214,316.5C 213.811,312.233 212.977,308.233 211.5,304.5C 210.532,302.393 210.198,300.059 210.5,297.5C 210.232,290.317 209.565,283.317 208.5,276.5C 207.686,274.369 207.186,272.036 207,269.5C 206.5,259.506 206.334,249.506 206.5,239.5C 207.525,236.026 208.192,232.36 208.5,228.5C 208.5,228.167 208.5,227.833 208.5,227.5C 210.04,225.162 210.706,222.495 210.5,219.5C 210.5,219.167 210.5,218.833 210.5,218.5C 212.601,215.203 213.935,211.537 214.5,207.5C 215.931,206.22 216.598,204.553 216.5,202.5C 218.213,201.365 218.88,199.698 218.5,197.5C 218.557,196.391 218.89,195.391 219.5,194.5C 220.708,193.766 222.041,193.433 223.5,193.5C 223.328,191.508 223.995,189.842 225.5,188.5C 224.873,187.583 224.539,186.583 224.5,185.5C 224.5,185.167 224.5,184.833 224.5,184.5C 225.906,184.027 226.573,183.027 226.5,181.5C 227.674,180.486 228.34,179.153 228.5,177.5C 228.5,177.167 228.5,176.833 228.5,176.5C 230.213,175.365 230.88,173.698 230.5,171.5C 230.5,171.167 230.5,170.833 230.5,170.5C 232.213,169.365 232.88,167.698 232.5,165.5C 233.674,164.486 234.34,163.153 234.5,161.5C 234.328,160.508 234.662,159.842 235.5,159.5C 238.805,155.859 242.138,152.192 245.5,148.5C 247.027,148.573 248.027,147.906 248.5,146.5C 250.153,146.34 251.486,145.674 252.5,144.5C 258.471,143.759 264.471,143.425 270.5,143.5C 270.833,143.5 271.167,143.5 271.5,143.5C 276.262,144.891 280.928,144.558 285.5,142.5 Z"/></g>
<g><path style="opacity:1" fill="#171717" d="M 285.5,142.5 C 280.928,144.558 276.262,144.891 271.5,143.5C 276.193,143.46 280.859,143.127 285.5,142.5 Z"/></g>
<g><path style="opacity:1" fill="#262626" d="M 252.5,144.5 C 251.486,145.674 250.153,146.34 248.5,146.5C 249.287,144.896 250.62,144.229 252.5,144.5 Z"/></g>
<g><path style="opacity:1" fill="#444444" d="M 248.5,146.5 C 248.027,147.906 247.027,148.573 245.5,148.5C 245.973,147.094 246.973,146.427 248.5,146.5 Z"/></g>
<g><path style="opacity:1" fill="#2d2d2d" d="M 306.5,143.5 C 308.466,144.255 308.8,145.421 307.5,147C 303.553,148.154 299.553,148.987 295.5,149.5C 298.614,148.044 301.948,146.878 305.5,146C 306.252,145.329 306.586,144.496 306.5,143.5 Z"/></g>
<g><path style="opacity:1" fill="#707070" d="M 285.5,153.5 C 284.101,154.89 282.434,155.89 280.5,156.5C 281.344,154.241 283.011,153.241 285.5,153.5 Z"/></g>
<g><path style="opacity:1" fill="#252524" d="M 245.5,148.5 C 242.138,152.192 238.805,155.859 235.5,159.5C 237.442,154.559 240.775,150.892 245.5,148.5 Z"/></g>
<g><path style="opacity:1" fill="#242424" d="M 276.5,160.5 C 276.573,162.027 275.906,163.027 274.5,163.5C 274.427,161.973 275.094,160.973 276.5,160.5 Z"/></g>
<g><path style="opacity:1" fill="#272727" d="M 234.5,161.5 C 234.34,163.153 233.674,164.486 232.5,165.5C 232.229,163.62 232.896,162.287 234.5,161.5 Z"/></g>
<g><path style="opacity:1" fill="#282828" d="M 272.5,165.5 C 272.5,166.833 271.833,167.5 270.5,167.5C 270.833,166.5 271.5,165.833 272.5,165.5 Z"/></g>
<g><path style="opacity:1" fill="#5d5d5d" d="M 232.5,165.5 C 232.88,167.698 232.213,169.365 230.5,170.5C 230.402,168.447 231.069,166.78 232.5,165.5 Z"/></g>
<g><path style="opacity:1" fill="#4b4b4b" d="M 270.5,168.5 C 270.5,170.833 270.5,173.167 270.5,175.5C 267.966,173.084 267.966,170.75 270.5,168.5 Z"/></g>
<g><path style="opacity:1" fill="#595959" d="M 230.5,171.5 C 230.88,173.698 230.213,175.365 228.5,176.5C 228.402,174.447 229.069,172.78 230.5,171.5 Z"/></g>
<g><path style="opacity:1" fill="#3e3e3e" d="M 270.5,175.5 C 271.906,175.973 272.573,176.973 272.5,178.5C 271.094,178.027 270.427,177.027 270.5,175.5 Z"/></g>
<g><path style="opacity:1" fill="#414141" d="M 228.5,177.5 C 228.34,179.153 227.674,180.486 226.5,181.5C 226.229,179.62 226.896,178.287 228.5,177.5 Z"/></g>
<g><path style="opacity:1" fill="#262625" d="M 272.5,178.5 C 273.906,178.973 274.573,179.973 274.5,181.5C 273.094,181.027 272.427,180.027 272.5,178.5 Z"/></g>
<g><path style="opacity:1" fill="#282827" d="M 226.5,181.5 C 226.573,183.027 225.906,184.027 224.5,184.5C 224.427,182.973 225.094,181.973 226.5,181.5 Z"/></g>
<g><path style="opacity:1" fill="#afafae" d="M 224.5,185.5 C 224.539,186.583 224.873,187.583 225.5,188.5C 223.995,189.842 223.328,191.508 223.5,193.5C 222.041,193.433 220.708,193.766 219.5,194.5C 220.41,191.008 222.076,188.008 224.5,185.5 Z"/></g>
<g><path style="opacity:1" fill="#5e5e5e" d="M 218.5,197.5 C 218.88,199.698 218.213,201.365 216.5,202.5C 216.402,200.447 217.069,198.78 218.5,197.5 Z"/></g>
<g><path style="opacity:1" fill="#0b0b0b" d="M 216.5,202.5 C 216.598,204.553 215.931,206.22 214.5,207.5C 214.402,205.447 215.069,203.78 216.5,202.5 Z"/></g>
<g><path style="opacity:1" fill="#101010" d="M 281.5,205.5 C 282.924,207.515 283.59,209.848 283.5,212.5C 282.076,210.485 281.41,208.152 281.5,205.5 Z"/></g>
<g><path style="opacity:1" fill="#111111" d="M 214.5,207.5 C 213.935,211.537 212.601,215.203 210.5,218.5C 211.065,214.463 212.399,210.797 214.5,207.5 Z"/></g>
<g><path style="opacity:1" fill="#141414" d="M 284.5,216.5 C 285.317,218.969 285.817,221.635 286,224.5C 286.5,233.16 286.666,241.827 286.5,250.5C 285.56,239.336 284.893,228.003 284.5,216.5 Z"/></g>
<g><path style="opacity:1" fill="#4d4d4d" d="M 210.5,219.5 C 210.706,222.495 210.04,225.162 208.5,227.5C 208.294,224.505 208.96,221.838 210.5,219.5 Z"/></g>
<g><path style="opacity:1" fill="#191919" d="M 208.5,228.5 C 208.192,232.36 207.525,236.026 206.5,239.5C 206.116,235.511 206.783,231.845 208.5,228.5 Z"/></g>
<g><path style="opacity:1" fill="#202020" d="M 208.5,276.5 C 209.565,283.317 210.232,290.317 210.5,297.5C 208.847,290.738 208.18,283.738 208.5,276.5 Z"/></g>
<g><path style="opacity:1" fill="#1f1f1f" d="M 287.5,284.5 C 287.57,288.425 286.903,292.091 285.5,295.5C 285.43,291.575 286.097,287.909 287.5,284.5 Z"/></g>
<g><path style="opacity:1" fill="#121212" d="M 285.5,295.5 C 285.741,297.898 285.074,299.898 283.5,301.5C 283.595,299.214 284.262,297.214 285.5,295.5 Z"/></g>
<g><path style="opacity:1" fill="#1b1b1b" d="M 277.5,309.5 C 276.71,310.401 275.71,311.068 274.5,311.5C 274.821,309.952 275.821,309.285 277.5,309.5 Z"/></g>
<g><path style="opacity:1" fill="#212121" d="M 211.5,304.5 C 212.977,308.233 213.811,312.233 214,316.5C 214.818,322.349 214.652,328.015 213.5,333.5C 213.421,323.789 212.754,314.122 211.5,304.5 Z"/></g>
<g><path style="opacity:1" fill="#1e1e1e" d="M 272.5,316.5 C 272.741,318.898 272.074,320.898 270.5,322.5C 270.595,320.214 271.262,318.214 272.5,316.5 Z"/></g>
<g><path style="opacity:1" fill="#151515" d="M 270.5,322.5 C 270.741,324.898 270.074,326.898 268.5,328.5C 268.595,326.214 269.262,324.214 270.5,322.5 Z"/></g>
<g><path style="opacity:1" fill="#2d2d2d" d="M 266.5,334.5 C 266.598,336.553 265.931,338.22 264.5,339.5C 264.402,337.447 265.069,335.78 266.5,334.5 Z"/></g>
<g><path style="opacity:1" fill="#3c3c3c" d="M 212.5,337.5 C 212.445,340.614 211.112,342.948 208.5,344.5C 209.584,341.996 210.917,339.663 212.5,337.5 Z"/></g>
<g><path style="opacity:1" fill="#2c2c2c" d="M 240.5,347.5 C 237.833,347.833 235.167,348.167 232.5,348.5C 235.04,346.587 237.707,346.254 240.5,347.5 Z"/></g>
<g><path style="opacity:1" fill="#5a5a57" d="M 240.5,347.5 C 242.898,347.259 244.898,347.926 246.5,349.5C 244.214,349.405 242.214,348.738 240.5,347.5 Z"/></g>
<g><path style="opacity:1" fill="#262626" d="M 227.5,350.5 C 227.179,352.048 226.179,352.715 224.5,352.5C 225.29,351.599 226.29,350.932 227.5,350.5 Z"/></g>
<g><path style="opacity:1" fill="#323232" d="M 200.5,352.5 C 200.443,353.609 200.11,354.609 199.5,355.5C 198.285,354.221 198.618,353.221 200.5,352.5 Z"/></g>
<g><path style="opacity:1" fill="#4a4a47" d="M 247.5,352.5 C 249.027,352.427 250.027,353.094 250.5,354.5C 248.973,354.573 247.973,353.906 247.5,352.5 Z"/></g>
<g><path style="opacity:1" fill="#272727" d="M 281.5,350.5 C 282.434,351.568 282.768,352.901 282.5,354.5C 278.833,354.5 275.167,354.5 271.5,354.5C 274.625,353.521 277.958,353.187 281.5,353.5C 281.5,352.5 281.5,351.5 281.5,350.5 Z"/></g>
</svg>
