<?xml version="1.0" encoding="UTF-8"?>
<!DOCTYPE svg PUBLIC "-//W3C//DTD SVG 1.1//EN" "http://www.w3.org/Graphics/SVG/1.1/DTD/svg11.dtd">
<svg xmlns="http://www.w3.org/2000/svg" version="1.1" viewBox="180 125 150 250" width="150" height="250" style="shape-rendering:geometricPrecision; text-rendering:geometricPrecision; image-rendering:optimizeQuality; fill-rule:evenodd; clip-rule:evenodd" xmlns:xlink="http://www.w3.org/1999/xlink">
<g><path style="opacity:1" fill="#e6e6e6" d="M 287.5,142.5 C 285.393,143.468 283.059,143.802 280.5,143.5C 281.172,142.733 282.005,142.066 283,141.5C 284.356,142.38 285.856,142.714 287.5,142.5 Z"/></g>
<g><path style="opacity:1" fill="#b1b1b1" d="M 303.5,142.5 C 298.833,142.5 294.167,142.5 289.5,142.5C 294.182,139.961 298.849,139.961 303.5,142.5 Z"/></g>
<g><path style="opacity:1" fill="#d1d1d1" d="M 280.5,143.5 C 271.317,143.624 261.983,143.958 252.5,144.5C 255.695,142.97 259.195,142.304 263,142.5C 268.827,143 274.661,143.333 280.5,143.5 Z"/></g>
<g><path style="opacity:1" fill="#d3d3d3" d="M 303.5,142.5 C 305.38,142.229 306.713,142.896 307.5,144.5C 305.847,144.34 304.514,143.674 303.5,142.5 Z"/></g>
<g><path style="opacity:1" fill="#202020" d="M 287.5,142.5 C 288.167,142.5 288.833,142.5 289.5,142.5C 294.167,142.5 298.833,142.5 303.5,142.5C 304.514,143.674 305.847,144.34 307.5,144.5C 305.928,145.687 304.261,146.687 302.5,147.5C 302.167,147.5 301.833,147.5 301.5,147.5C 298.933,147.721 296.599,148.388 294.5,149.5C 291.021,151.403 287.354,153.07 283.5,154.5C 281.973,154.427 280.973,155.094 280.5,156.5C 279.5,158.167 278.167,159.5 276.5,160.5C 275.094,160.973 274.427,161.973 274.5,163.5C 274.167,164.5 273.5,165.167 272.5,165.5C 271.5,165.833 270.833,166.5 270.5,167.5C 267.833,170.167 267.833,172.833 270.5,175.5C 270.427,177.027 271.094,178.027 272.5,178.5C 272.427,180.027 273.094,181.027 274.5,181.5C 274.5,181.833 274.5,182.167 274.5,182.5C 274.427,184.027 275.094,185.027 276.5,185.5C 280.061,193.078 282.061,201.078 282.5,209.5C 282.565,212.428 283.232,215.095 284.5,217.5C 284.173,227.681 284.506,237.681 285.5,247.5C 285.646,251.387 286.313,255.054 287.5,258.5C 288.245,273.046 286.912,287.379 283.5,301.5C 282.921,305.361 280.921,308.027 277.5,309.5C 274.113,309.862 272.447,311.862 272.5,315.5C 272.5,315.833 272.5,316.167 272.5,316.5C 271.262,318.214 270.595,320.214 270.5,322.5C 269.463,323.93 268.796,325.597 268.5,327.5C 267.262,329.214 266.595,331.214 266.5,333.5C 265.262,335.214 264.595,337.214 264.5,339.5C 263.387,340.946 263.22,342.613 264,344.5C 265.011,345.337 266.178,345.67 267.5,345.5C 273.257,344.448 277.924,346.115 281.5,350.5C 281.5,351.5 281.5,352.5 281.5,353.5C 277.958,353.187 274.625,353.521 271.5,354.5C 269.833,354.5 268.167,354.5 266.5,354.5C 261.156,354.666 255.823,354.499 250.5,354C 248.329,352.826 247.329,350.993 247.5,348.5C 246.167,348.5 244.833,348.5 243.5,348.5C 239.801,345.935 236.135,345.935 232.5,348.5C 230.847,348.66 229.514,349.326 228.5,350.5C 225.411,351.739 222.411,353.239 219.5,355C 216.305,355.181 213.305,355.681 210.5,356.5C 210.167,356.5 209.833,356.5 209.5,356.5C 206.5,356.5 203.5,356.5 200.5,356.5C 199.595,355.298 199.595,353.964 200.5,352.5C 201.5,352.167 202.167,351.5 202.5,350.5C 202.833,349.5 203.5,348.833 204.5,348.5C 206.71,348.106 208.043,346.773 208.5,344.5C 213.459,339.623 215.459,333.623 214.5,326.5C 211.182,303.286 208.849,279.953 207.5,256.5C 206.961,244.011 207.961,231.678 210.5,219.5C 213.204,213.733 215.538,207.733 217.5,201.5C 218.995,201.585 219.995,200.919 220.5,199.5C 219.947,197.273 219.947,194.939 220.5,192.5C 220.992,190.181 221.992,188.181 223.5,186.5C 225.25,185.341 226.25,183.674 226.5,181.5C 227.674,180.486 228.34,179.153 228.5,177.5C 228.5,177.167 228.5,176.833 228.5,176.5C 230.213,175.365 230.88,173.698 230.5,171.5C 230.5,171.167 230.5,170.833 230.5,170.5C 232.213,169.365 232.88,167.698 232.5,165.5C 233.674,164.486 234.34,163.153 234.5,161.5C 235.906,161.027 236.573,160.027 236.5,158.5C 239.471,155.192 242.471,151.859 245.5,148.5C 247.027,148.573 248.027,147.906 248.5,146.5C 248.833,146.5 249.167,146.5 249.5,146.5C 250.71,146.068 251.71,145.401 252.5,144.5C 261.983,143.958 271.317,143.624 280.5,143.5C 283.059,143.802 285.393,143.468 287.5,142.5 Z"/></g>
<g><path style="opacity:1" fill="#e7e7e7" d="M 252.5,144.5 C 251.71,145.401 250.71,146.068 249.5,146.5C 249.821,144.952 250.821,144.285 252.5,144.5 Z"/></g>
<g><path style="opacity:1" fill="#dfdfdf" d="M 307.5,144.5 C 308.774,145.189 308.774,146.023 307.5,147C 305.866,147.494 304.199,147.66 302.5,147.5C 304.261,146.687 305.928,145.687 307.5,144.5 Z"/></g>
<g><path style="opacity:1" fill="#c8c8c8" d="M 248.5,146.5 C 248.027,147.906 247.027,148.573 245.5,148.5C 245.973,147.094 246.973,146.427 248.5,146.5 Z"/></g>
<g><path style="opacity:1" fill="#cfcfcf" d="M 301.5,147.5 C 299.562,149.163 297.228,149.829 294.5,149.5C 296.599,148.388 298.933,147.721 301.5,147.5 Z"/></g>
<g><path style="opacity:1" fill="#d4d4d4" d="M 245.5,148.5 C 242.471,151.859 239.471,155.192 236.5,158.5C 238.105,153.896 241.105,150.562 245.5,148.5 Z"/></g>
<g><path style="opacity:1" fill="#d7d7d7" d="M 283.5,154.5 C 283.027,155.906 282.027,156.573 280.5,156.5C 280.973,155.094 281.973,154.427 283.5,154.5 Z"/></g>
<g><path style="opacity:1" fill="#d3d3d3" d="M 236.5,158.5 C 236.573,160.027 235.906,161.027 234.5,161.5C 234.427,159.973 235.094,158.973 236.5,158.5 Z"/></g>
<g><path style="opacity:1" fill="#e0e0e0" d="M 276.5,160.5 C 276.573,162.027 275.906,163.027 274.5,163.5C 274.427,161.973 275.094,160.973 276.5,160.5 Z"/></g>
<g><path style="opacity:1" fill="#e3e3e3" d="M 234.5,161.5 C 234.34,163.153 233.674,164.486 232.5,165.5C 232.229,163.62 232.896,162.287 234.5,161.5 Z"/></g>
<g><path style="opacity:1" fill="#e1e1e0" d="M 272.5,165.5 C 272.5,166.833 271.833,167.5 270.5,167.5C 270.833,166.5 271.5,165.833 272.5,165.5 Z"/></g>
<g><path style="opacity:1" fill="#a9a9a9" d="M 232.5,165.5 C 232.88,167.698 232.213,169.365 230.5,170.5C 230.402,168.447 231.069,166.78 232.5,165.5 Z"/></g>
<g><path style="opacity:1" fill="#d1d1d0" d="M 270.5,167.5 C 270.5,170.167 270.5,172.833 270.5,175.5C 267.833,172.833 267.833,170.167 270.5,167.5 Z"/></g>
<g><path style="opacity:1" fill="#adadad" d="M 230.5,171.5 C 230.88,173.698 230.213,175.365 228.5,176.5C 228.402,174.447 229.069,172.78 230.5,171.5 Z"/></g>
<g><path style="opacity:1" fill="#cfcfcf" d="M 270.5,175.5 C 271.906,175.973 272.573,176.973 272.5,178.5C 271.094,178.027 270.427,177.027 270.5,175.5 Z"/></g>
<g><path style="opacity:1" fill="#cdcdc7" d="M 228.5,177.5 C 228.34,179.153 227.674,180.486 226.5,181.5C 226.229,179.62 226.896,178.287 228.5,177.5 Z"/></g>
<g><path style="opacity:1" fill="#e4e4e4" d="M 272.5,178.5 C 273.906,178.973 274.573,179.973 274.5,181.5C 273.094,181.027 272.427,180.027 272.5,178.5 Z"/></g>
<g><path style="opacity:1" fill="#d3d3d2" d="M 226.5,181.5 C 226.25,183.674 225.25,185.341 223.5,186.5C 223.75,184.326 224.75,182.659 226.5,181.5 Z"/></g>
<g><path style="opacity:1" fill="#cdcdcd" d="M 274.5,182.5 C 275.906,182.973 276.573,183.973 276.5,185.5C 275.094,185.027 274.427,184.027 274.5,182.5 Z"/></g>
<g><path style="opacity:1" fill="#505050" d="M 220.5,192.5 C 219.947,194.939 219.947,197.273 220.5,199.5C 219.995,200.919 218.995,201.585 217.5,201.5C 217.5,201.167 217.5,200.833 217.5,200.5C 217.98,197.557 218.98,194.89 220.5,192.5 Z"/></g>
<g><path style="opacity:1" fill="#e5e5e5" d="M 282.5,209.5 C 284.04,211.838 284.706,214.505 284.5,217.5C 283.232,215.095 282.565,212.428 282.5,209.5 Z"/></g>
<g><path style="opacity:1" fill="#e4e4e4" d="M 217.5,200.5 C 217.5,200.833 217.5,201.167 217.5,201.5C 215.538,207.733 213.204,213.733 210.5,219.5C 211.864,212.736 214.197,206.402 217.5,200.5 Z"/></g>
<g><path style="opacity:1" fill="#aeaeae" d="M 210.5,219.5 C 207.961,231.678 206.961,244.011 207.5,256.5C 207.167,256.5 206.833,256.5 206.5,256.5C 206.334,248.16 206.5,239.827 207,231.5C 207.293,227.132 208.46,223.132 210.5,219.5 Z"/></g>
<g><path style="opacity:1" fill="#9f9f9f" d="M 284.5,217.5 C 286.625,226.682 286.958,236.015 285.5,245.5C 285.5,246.167 285.5,246.833 285.5,247.5C 284.506,237.681 284.173,227.681 284.5,217.5 Z"/></g>
<g><path style="opacity:1" fill="#e7e7e7" d="M 285.5,245.5 C 286.895,249.591 287.562,253.924 287.5,258.5C 286.313,255.054 285.646,251.387 285.5,247.5C 285.5,246.833 285.5,246.167 285.5,245.5 Z"/></g>
<g><path style="opacity:1" fill="#d9d9d9" d="M 287.5,258.5 C 288.657,267.324 288.824,276.324 288,285.5C 287.306,291.183 285.806,296.516 283.5,301.5C 286.912,287.379 288.245,273.046 287.5,258.5 Z"/></g>
<g><path style="opacity:1" fill="#d5d5d5" d="M 206.5,256.5 C 206.833,256.5 207.167,256.5 207.5,256.5C 208.849,279.953 211.182,303.286 214.5,326.5C 215.459,333.623 213.459,339.623 208.5,344.5C 211.943,339.238 213.609,333.404 213.5,327C 211.831,312.153 209.998,297.319 208,282.5C 207.073,273.855 206.573,265.189 206.5,256.5 Z"/></g>
<g><path style="opacity:1" fill="#d8d8d8" d="M 277.5,309.5 C 275.486,311.204 273.819,313.204 272.5,315.5C 272.447,311.862 274.113,309.862 277.5,309.5 Z"/></g>
<g><path style="opacity:1" fill="#e3e3e3" d="M 272.5,316.5 C 272.741,318.898 272.074,320.898 270.5,322.5C 270.595,320.214 271.262,318.214 272.5,316.5 Z"/></g>
<g><path style="opacity:1" fill="#eeeeec" d="M 270.5,322.5 C 271.326,324.548 270.659,326.215 268.5,327.5C 268.796,325.597 269.463,323.93 270.5,322.5 Z"/></g>
<g><path style="opacity:1" fill="#d8d8d6" d="M 268.5,327.5 C 268.741,329.898 268.074,331.898 266.5,333.5C 266.595,331.214 267.262,329.214 268.5,327.5 Z"/></g>
<g><path style="opacity:1" fill="#e2e2e0" d="M 266.5,333.5 C 266.741,335.898 266.074,337.898 264.5,339.5C 264.595,337.214 265.262,335.214 266.5,333.5 Z"/></g>
<g><path style="opacity:1" fill="#eaeaea" d="M 264.5,339.5 C 264.988,341.809 265.988,343.809 267.5,345.5C 266.178,345.67 265.011,345.337 264,344.5C 263.22,342.613 263.387,340.946 264.5,339.5 Z"/></g>
<g><path style="opacity:1" fill="#979797" d="M 208.5,344.5 C 208.043,346.773 206.71,348.106 204.5,348.5C 205.402,346.659 206.736,345.326 208.5,344.5 Z"/></g>
<g><path style="opacity:1" fill="#cfcfcd" d="M 243.5,348.5 C 239.873,347.461 236.206,347.461 232.5,348.5C 236.135,345.935 239.801,345.935 243.5,348.5 Z"/></g>
<g><path style="opacity:1" fill="#ececec" d="M 232.5,348.5 C 231.713,350.104 230.38,350.771 228.5,350.5C 229.514,349.326 230.847,348.66 232.5,348.5 Z"/></g>
<g><path style="opacity:1" fill="#eeeeee" d="M 202.5,350.5 C 202.167,351.5 201.5,352.167 200.5,352.5C 200.5,351.167 201.167,350.5 202.5,350.5 Z"/></g>
<g><path style="opacity:1" fill="#dcdcdc" d="M 200.5,352.5 C 199.595,353.964 199.595,355.298 200.5,356.5C 197.978,355.335 197.978,354.002 200.5,352.5 Z"/></g>
<g><path style="opacity:1" fill="#dadada" d="M 281.5,350.5 C 282.954,351.52 283.287,352.687 282.5,354C 278.848,354.499 275.182,354.665 271.5,354.5C 274.625,353.521 277.958,353.187 281.5,353.5C 281.5,352.5 281.5,351.5 281.5,350.5 Z"/></g>
<g><path style="opacity:1" fill="#f2f2f2" d="M 243.5,348.5 C 244.833,348.5 246.167,348.5 247.5,348.5C 247.329,350.993 248.329,352.826 250.5,354C 255.823,354.499 261.156,354.666 266.5,354.5C 261.015,355.652 255.349,355.818 249.5,355C 246.697,353.549 244.697,351.382 243.5,348.5 Z"/></g>
<g><path style="opacity:1" fill="#d8d8d8" d="M 228.5,350.5 C 223.661,356.02 217.661,358.02 210.5,356.5C 213.305,355.681 216.305,355.181 219.5,355C 222.411,353.239 225.411,351.739 228.5,350.5 Z"/></g>
<g><path style="opacity:1" fill="#d1d1d1" d="M 200.5,356.5 C 203.5,356.5 206.5,356.5 209.5,356.5C 207.657,357.283 205.657,357.95 203.5,358.5C 202.261,358.058 201.261,357.391 200.5,356.5 Z"/></g>
</svg>
